# xmcd
#
# Track frame offsets:
#	150
#	13778
#	24300
#	42713
#
# Disc length: 811 seconds
# Revision: 0
# Processed by: cddbd v1.5.2PL0 Copyright (c) Steve Scherf et al.
# Submitted via: dBpowerAMP V12.0
#
DISCID=2b032904
DTITLE=G. Love and Special Sauce - Wontcha Come Home
DYEAR=2008
DGENRE=Blues/Rock
TTITLE0=Wontcha Come Home
TTITLE1=Sunshine
TTITLE2=Soft and Sweet
TTITLE3=Superhero Brother
EXTD=
EXTT0=
EXTT1=
EXTT2=
EXTT3=
PLAYORDER=
